<svg width="676" height="381" viewBox="0 0 676 381" fill="none" xmlns="http://www.w3.org/2000/svg">
<path opacity="0.5" d="M17.0971 238.756C14.5051 238.756 12.1471 238.18 10.0231 237.028C7.93507 235.84 6.26107 234.13 5.00107 231.898C3.77707 229.63 3.16507 226.876 3.16507 223.636V214.564C3.16507 209.704 4.53307 205.978 7.26907 203.386C10.0051 200.758 13.7131 199.444 18.3931 199.444C23.0371 199.444 26.6191 200.686 29.1391 203.17C31.6951 205.618 32.9731 208.948 32.9731 213.16V213.376H25.9531V212.944C25.9531 211.612 25.6651 210.406 25.0891 209.326C24.5491 208.246 23.7211 207.4 22.6051 206.788C21.4891 206.14 20.0851 205.816 18.3931 205.816C15.8731 205.816 13.8931 206.59 12.4531 208.138C11.0131 209.686 10.2931 211.792 10.2931 214.456V223.744C10.2931 226.372 11.0131 228.496 12.4531 230.116C13.8931 231.7 15.9091 232.492 18.5011 232.492C21.0931 232.492 22.9831 231.808 24.1711 230.44C25.3591 229.072 25.9531 227.344 25.9531 225.256V224.716H16.9891V218.668H32.9731V238H26.3851V234.382H25.4131C25.1611 234.994 24.7471 235.642 24.1711 236.326C23.6311 237.01 22.8031 237.586 21.6871 238.054C20.5711 238.522 19.0411 238.756 17.0971 238.756ZM37.191 238L47.127 200.2H59.547L69.483 238H62.139L60.087 229.684H46.587L44.535 238H37.191ZM48.261 223.096H58.413L53.823 204.682H52.851L48.261 223.096ZM79.2751 238V206.68H68.2591V200.2H97.4191V206.68H86.4031V238H79.2751ZM100.977 238V233.464C100.977 230.836 101.409 228.658 102.273 226.93C103.137 225.166 104.379 223.726 105.999 222.61C107.655 221.458 109.671 220.522 112.047 219.802L115.665 218.668C116.997 218.236 118.113 217.714 119.013 217.102C119.913 216.454 120.597 215.68 121.065 214.78C121.569 213.88 121.821 212.854 121.821 211.702V211.486C121.821 209.686 121.209 208.264 119.985 207.22C118.761 206.14 117.087 205.6 114.963 205.6C112.875 205.6 111.183 206.176 109.887 207.328C108.627 208.444 107.997 210.064 107.997 212.188V213.16H101.085V212.296C101.085 209.56 101.697 207.238 102.921 205.33C104.145 203.422 105.801 201.964 107.889 200.956C110.013 199.948 112.371 199.444 114.963 199.444C117.555 199.444 119.895 199.948 121.983 200.956C124.071 201.928 125.709 203.314 126.897 205.114C128.121 206.878 128.733 208.966 128.733 211.378V211.918C128.733 214.33 128.229 216.382 127.221 218.074C126.249 219.73 124.917 221.098 123.225 222.178C121.533 223.222 119.607 224.086 117.447 224.77L113.991 225.85C112.443 226.318 111.237 226.84 110.373 227.416C109.509 227.956 108.897 228.568 108.537 229.252C108.213 229.9 108.051 230.692 108.051 231.628V231.844H128.409V238H100.977ZM137.36 238L132.392 200.2H139.466L143.138 233.032H144.11L148.862 200.2H161.174L165.926 233.032H166.898L170.57 200.2H177.644L172.676 238H160.364L155.504 204.412H154.532L149.672 238H137.36ZM179.257 238L189.193 200.2H201.613L211.549 238H204.205L202.153 229.684H188.653L186.601 238H179.257ZM190.327 223.096H200.479L195.889 204.682H194.917L190.327 223.096ZM221.892 238V224.986L209.04 200.2H216.978L224.97 216.4H225.942L233.934 200.2H241.872L229.02 224.986V238H221.892Z" fill="url(#paint0_linear_200_79)"/>
<path opacity="0.5" d="M450.097 367.756C447.505 367.756 445.147 367.18 443.023 366.028C440.935 364.84 439.261 363.13 438.001 360.898C436.777 358.63 436.165 355.876 436.165 352.636V343.564C436.165 338.704 437.533 334.978 440.269 332.386C443.005 329.758 446.713 328.444 451.393 328.444C456.037 328.444 459.619 329.686 462.139 332.17C464.695 334.618 465.973 337.948 465.973 342.16V342.376H458.953V341.944C458.953 340.612 458.665 339.406 458.089 338.326C457.549 337.246 456.721 336.4 455.605 335.788C454.489 335.14 453.085 334.816 451.393 334.816C448.873 334.816 446.893 335.59 445.453 337.138C444.013 338.686 443.293 340.792 443.293 343.456V352.744C443.293 355.372 444.013 357.496 445.453 359.116C446.893 360.7 448.909 361.492 451.501 361.492C454.093 361.492 455.983 360.808 457.171 359.44C458.359 358.072 458.953 356.344 458.953 354.256V353.716H449.989V347.668H465.973V367H459.385V363.382H458.413C458.161 363.994 457.747 364.642 457.171 365.326C456.631 366.01 455.803 366.586 454.687 367.054C453.571 367.522 452.041 367.756 450.097 367.756ZM470.191 367L480.127 329.2H492.547L502.483 367H495.139L493.087 358.684H479.587L477.535 367H470.191ZM481.261 352.096H491.413L486.823 333.682H485.851L481.261 352.096ZM512.275 367V335.68H501.259V329.2H530.419V335.68H519.403V367H512.275ZM533.977 367V362.464C533.977 359.836 534.409 357.658 535.273 355.93C536.137 354.166 537.379 352.726 538.999 351.61C540.655 350.458 542.671 349.522 545.047 348.802L548.665 347.668C549.997 347.236 551.113 346.714 552.013 346.102C552.913 345.454 553.597 344.68 554.065 343.78C554.569 342.88 554.821 341.854 554.821 340.702V340.486C554.821 338.686 554.209 337.264 552.985 336.22C551.761 335.14 550.087 334.6 547.963 334.6C545.875 334.6 544.183 335.176 542.887 336.328C541.627 337.444 540.997 339.064 540.997 341.188V342.16H534.085V341.296C534.085 338.56 534.697 336.238 535.921 334.33C537.145 332.422 538.801 330.964 540.889 329.956C543.013 328.948 545.371 328.444 547.963 328.444C550.555 328.444 552.895 328.948 554.983 329.956C557.071 330.928 558.709 332.314 559.897 334.114C561.121 335.878 561.733 337.966 561.733 340.378V340.918C561.733 343.33 561.229 345.382 560.221 347.074C559.249 348.73 557.917 350.098 556.225 351.178C554.533 352.222 552.607 353.086 550.447 353.77L546.991 354.85C545.443 355.318 544.237 355.84 543.373 356.416C542.509 356.956 541.897 357.568 541.537 358.252C541.213 358.9 541.051 359.692 541.051 360.628V360.844H561.409V367H533.977ZM570.36 367L565.392 329.2H572.466L576.138 362.032H577.11L581.862 329.2H594.174L598.926 362.032H599.898L603.57 329.2H610.644L605.676 367H593.364L588.504 333.412H587.532L582.672 367H570.36ZM612.257 367L622.193 329.2H634.613L644.549 367H637.205L635.153 358.684H621.653L619.601 367H612.257ZM623.327 352.096H633.479L628.889 333.682H627.917L623.327 352.096ZM654.892 367V353.986L642.04 329.2H649.978L657.97 345.4H658.942L666.934 329.2H674.872L662.02 353.986V367H654.892Z" fill="url(#paint1_linear_200_79)"/>
<path opacity="0.5" d="M322.857 51.756C320.265 51.756 317.907 51.18 315.783 50.028C313.695 48.84 312.021 47.13 310.761 44.898C309.537 42.63 308.925 39.876 308.925 36.636V27.564C308.925 22.704 310.293 18.978 313.029 16.386C315.765 13.758 319.473 12.444 324.153 12.444C328.797 12.444 332.379 13.686 334.899 16.17C337.455 18.618 338.733 21.948 338.733 26.16V26.376H331.713V25.944C331.713 24.612 331.425 23.406 330.849 22.326C330.309 21.246 329.481 20.4 328.365 19.788C327.249 19.14 325.845 18.816 324.153 18.816C321.633 18.816 319.653 19.59 318.213 21.138C316.773 22.686 316.053 24.792 316.053 27.456V36.744C316.053 39.372 316.773 41.496 318.213 43.116C319.653 44.7 321.669 45.492 324.261 45.492C326.853 45.492 328.743 44.808 329.931 43.44C331.119 42.072 331.713 40.344 331.713 38.256V37.716H322.749V31.668H338.733V51H332.145V47.382H331.173C330.921 47.994 330.507 48.642 329.931 49.326C329.391 50.01 328.563 50.586 327.447 51.054C326.331 51.522 324.801 51.756 322.857 51.756ZM342.951 51L352.887 13.2H365.307L375.243 51H367.899L365.847 42.684H352.347L350.295 51H342.951ZM354.021 36.096H364.173L359.583 17.682H358.611L354.021 36.096ZM385.035 51V19.68H374.019V13.2H403.179V19.68H392.163V51H385.035ZM406.737 51V46.464C406.737 43.836 407.169 41.658 408.033 39.93C408.897 38.166 410.139 36.726 411.759 35.61C413.415 34.458 415.431 33.522 417.807 32.802L421.425 31.668C422.757 31.236 423.873 30.714 424.773 30.102C425.673 29.454 426.357 28.68 426.825 27.78C427.329 26.88 427.581 25.854 427.581 24.702V24.486C427.581 22.686 426.969 21.264 425.745 20.22C424.521 19.14 422.847 18.6 420.723 18.6C418.635 18.6 416.943 19.176 415.647 20.328C414.387 21.444 413.757 23.064 413.757 25.188V26.16H406.845V25.296C406.845 22.56 407.457 20.238 408.681 18.33C409.905 16.422 411.561 14.964 413.649 13.956C415.773 12.948 418.131 12.444 420.723 12.444C423.315 12.444 425.655 12.948 427.743 13.956C429.831 14.928 431.469 16.314 432.657 18.114C433.881 19.878 434.493 21.966 434.493 24.378V24.918C434.493 27.33 433.989 29.382 432.981 31.074C432.009 32.73 430.677 34.098 428.985 35.178C427.293 36.222 425.367 37.086 423.207 37.77L419.751 38.85C418.203 39.318 416.997 39.84 416.133 40.416C415.269 40.956 414.657 41.568 414.297 42.252C413.973 42.9 413.811 43.692 413.811 44.628V44.844H434.169V51H406.737ZM443.12 51L438.152 13.2H445.226L448.898 46.032H449.87L454.622 13.2H466.934L471.686 46.032H472.658L476.33 13.2H483.404L478.436 51H466.124L461.264 17.412H460.292L455.432 51H443.12ZM485.017 51L494.953 13.2H507.373L517.309 51H509.965L507.913 42.684H494.413L492.361 51H485.017ZM496.087 36.096H506.239L501.649 17.682H500.677L496.087 36.096ZM527.652 51V37.986L514.8 13.2H522.738L530.73 29.4H531.702L539.694 13.2H547.632L534.78 37.986V51H527.652Z" fill="url(#paint2_linear_200_79)"/>
<defs>
<linearGradient id="paint0_linear_200_79" x1="121.385" y1="252" x2="121.385" y2="187" gradientUnits="userSpaceOnUse">
<stop stop-color="white" stop-opacity="0"/>
<stop offset="0.51" stop-color="#2793F2"/>
</linearGradient>
<linearGradient id="paint1_linear_200_79" x1="554.385" y1="381" x2="554.385" y2="316" gradientUnits="userSpaceOnUse">
<stop stop-color="white" stop-opacity="0"/>
<stop offset="0.51" stop-color="#2793F2"/>
</linearGradient>
<linearGradient id="paint2_linear_200_79" x1="427.145" y1="65" x2="427.145" y2="0" gradientUnits="userSpaceOnUse">
<stop stop-color="white" stop-opacity="0"/>
<stop offset="0.51" stop-color="#2793F2"/>
</linearGradient>
</defs>
</svg>
