<svg width="268" height="65" viewBox="0 0 268 65" fill="none" xmlns="http://www.w3.org/2000/svg">
<path d="M22.0325 51.2534C20.1945 52.3799 17.9348 52.9432 15.2532 52.9432C10.8392 52.9432 7.22363 51.4187 4.40648 48.3697C1.46882 45.3058 0 41.1152 0 35.7982C0 30.4213 1.48389 26.1106 4.45168 22.8664C7.41947 19.6221 11.3439 18 16.2249 18C20.4581 18 23.8553 19.0739 26.4163 21.2217C28.9924 23.3545 30.4688 26.0204 30.8454 29.2197H23.9984C23.4711 26.9517 22.1831 25.3672 20.1343 24.466C18.9893 23.9703 17.7163 23.7225 16.3153 23.7225C13.6337 23.7225 11.4268 24.7363 9.69429 26.764C7.97684 28.7766 7.11817 31.8106 7.11817 35.8658C7.11817 39.9512 8.05224 42.8424 9.92019 44.5397C11.7883 46.2369 13.9125 47.0855 16.2927 47.0855C18.6278 47.0855 20.541 46.4172 22.0325 45.0804C23.5238 43.7286 24.4429 41.9638 24.7893 39.786H17.0836V34.2437H30.9584V52.0645H26.3485L25.6481 47.9191C24.3072 49.4962 23.102 50.6077 22.0325 51.2534ZM35.2546 30.166C36.9569 28.0031 39.8796 26.9217 44.0223 26.9217C46.719 26.9217 49.1143 27.4548 51.2084 28.5212C53.3023 29.5877 54.3494 31.6002 54.3494 34.5592V45.8239C54.3494 46.6049 54.3644 47.5512 54.3946 48.6626C54.4397 49.5037 54.5678 50.0745 54.7787 50.3748C54.9896 50.6752 55.306 50.923 55.7278 51.1183V52.0645H48.7226C48.5268 51.5689 48.3912 51.1033 48.3159 50.6677C48.2405 50.2322 48.1802 49.7365 48.1351 49.1808C47.2463 50.142 46.2219 50.9606 45.0619 51.6365C43.6759 52.4325 42.1092 52.8306 40.3616 52.8306C38.132 52.8306 36.2865 52.1997 34.8253 50.938C33.379 49.6614 32.6559 47.859 32.6559 45.531C32.6559 42.5121 33.8234 40.3267 36.1585 38.9749C37.439 38.239 39.3221 37.7133 41.8079 37.3979L43.9998 37.1275C45.1899 36.9773 46.0411 36.7896 46.5532 36.5643C47.4723 36.1738 47.9317 35.5654 47.9317 34.7394C47.9317 33.7331 47.5776 33.0421 46.8697 32.6667C46.1766 32.2762 45.1522 32.0809 43.7964 32.0809C42.2748 32.0809 41.1977 32.4564 40.565 33.2074C40.1131 33.7631 39.8118 34.5141 39.6611 35.4604H33.4468C33.5824 33.3125 34.185 31.5477 35.2546 30.166ZM40.0452 47.4235C40.6478 47.9191 41.386 48.1669 42.2598 48.1669C43.6457 48.1669 44.9187 47.7614 46.0788 46.9504C47.2538 46.1393 47.8639 44.6599 47.9091 42.5121V40.1239C47.5023 40.3793 47.0881 40.5895 46.6662 40.7548C46.2596 40.9049 45.6946 41.0477 44.9714 41.1828L43.5252 41.4531C42.1694 41.6934 41.1977 41.9863 40.6102 42.3318C39.6159 42.9176 39.1187 43.8263 39.1187 45.0578C39.1187 46.1544 39.4276 46.9429 40.0452 47.4235ZM68.5884 47.4911V52.2899L65.5378 52.4025C62.4947 52.5076 60.4157 51.982 59.3009 50.8254C58.5778 50.0894 58.2162 48.9555 58.2162 47.4235V32.3062H54.7814V27.7327H58.2162V20.8838H64.5887V27.7327H68.5884V32.3062H64.5887V45.2832C64.5887 46.2895 64.7168 46.9203 64.9728 47.1757C65.2289 47.416 66.0123 47.5362 67.323 47.5362C67.5188 47.5362 67.7222 47.5362 67.9331 47.5362C68.1591 47.5211 68.3775 47.5061 68.5884 47.4911ZM91.0303 44.8551C90.8646 46.312 90.1038 47.7915 88.748 49.2934C86.6389 51.6816 83.6862 52.8757 79.8898 52.8757C76.7563 52.8757 73.9919 51.8693 71.5966 49.8566C69.2013 47.844 68.0036 44.5697 68.0036 40.0338C68.0036 35.7833 69.0808 32.524 71.235 30.256C73.4044 27.988 76.214 26.854 79.6638 26.854C81.7127 26.854 83.5582 27.2371 85.2002 28.0031C86.8423 28.7691 88.1981 29.9781 89.2678 31.6303C90.2319 33.0872 90.8571 34.7769 91.1433 36.6994C91.309 37.8259 91.3769 39.448 91.3467 41.5658H74.489C74.5795 44.029 75.3553 45.7563 76.8166 46.7476C77.7055 47.3634 78.775 47.6713 80.0254 47.6713C81.3511 47.6713 82.4283 47.2958 83.2569 46.5448C83.7088 46.1393 84.108 45.5761 84.4545 44.8551H91.0303ZM84.6579 37.3303C84.5524 35.633 84.0327 34.3489 83.0986 33.4778C82.1797 32.5916 81.0348 32.1485 79.6638 32.1485C78.1724 32.1485 77.0124 32.6141 76.1838 33.5454C75.3704 34.4765 74.8581 35.7382 74.6473 37.3303H84.6579ZM216.789 18.8561H223.862L214.485 52.0645H207.841L203.818 32.6442L202.643 26.2233L201.469 32.6442L197.446 52.0645H190.983L181.538 18.8561H188.927L193.333 37.871L194.282 43.1654L195.254 37.9837L199.005 18.8561H206.349L210.304 37.871L211.32 43.1654L212.337 38.0737L216.789 18.8561ZM224.001 30.166C225.703 28.0031 228.625 26.9217 232.768 26.9217C235.465 26.9217 237.861 27.4548 239.954 28.5212C242.048 29.5877 243.095 31.6002 243.095 34.5592V45.8239C243.095 46.6049 243.11 47.5512 243.14 48.6626C243.186 49.5037 243.314 50.0745 243.525 50.3748C243.735 50.6752 244.051 50.923 244.474 51.1183V52.0645H237.468C237.272 51.5689 237.137 51.1033 237.061 50.6677C236.986 50.2322 236.926 49.7365 236.881 49.1808C235.992 50.142 234.968 50.9606 233.807 51.6365C232.422 52.4325 230.855 52.8306 229.107 52.8306C226.878 52.8306 225.032 52.1997 223.571 50.938C222.125 49.6614 221.401 47.859 221.401 45.531C221.401 42.5121 222.569 40.3267 224.904 38.9749C226.185 38.239 228.068 37.7133 230.553 37.3979L232.746 37.1275C233.935 36.9773 234.787 36.7896 235.299 36.5643C236.218 36.1738 236.678 35.5654 236.678 34.7394C236.678 33.7331 236.324 33.0421 235.615 32.6667C234.923 32.2762 233.898 32.0809 232.542 32.0809C231.021 32.0809 229.944 32.4564 229.31 33.2074C228.859 33.7631 228.557 34.5141 228.407 35.4604H222.193C222.328 33.3125 222.931 31.5477 224.001 30.166ZM228.791 47.4235C229.393 47.9191 230.132 48.1669 231.005 48.1669C232.392 48.1669 233.665 47.7614 234.824 46.9504C236 46.1393 236.61 44.6599 236.655 42.5121V40.1239C236.248 40.3793 235.834 40.5895 235.413 40.7548C235.006 40.9049 234.441 41.0477 233.718 41.1828L232.271 41.4531C230.915 41.6934 229.944 41.9863 229.356 42.3318C228.362 42.9176 227.864 43.8263 227.864 45.0578C227.864 46.1544 228.174 46.9429 228.791 47.4235ZM256.069 45.6211L261.154 27.5074H268L259.549 51.659C257.922 56.3151 256.634 59.1989 255.685 60.3103C254.735 61.4368 252.838 62 249.991 62C249.418 62 248.958 61.9925 248.612 61.9775C248.266 61.9775 247.745 61.955 247.053 61.9099V56.7732L247.866 56.8182C248.499 56.8483 249.102 56.8257 249.673 56.7507C250.246 56.6756 250.728 56.5029 251.12 56.2325C251.497 55.9771 251.843 55.4439 252.16 54.6329C252.491 53.8218 252.627 53.3262 252.566 53.146L243.527 27.5074H250.691L256.069 45.6211Z" fill="white"/>
<path d="M161.069 36.1177L164.883 45.4248C165.142 46.0532 165.971 46.2001 166.43 45.6989L175.755 35.5456C176.319 34.9318 175.843 33.9484 175.009 34.0021L161.87 34.8482C161.237 34.889 160.83 35.534 161.069 36.1177Z" fill="white"/>
<path d="M109.608 28.6619L100.88 22.2041C100.291 21.7681 99.4256 22.0662 99.2652 22.7605L96.0251 36.8225C95.8292 37.6727 96.8202 38.3173 97.5797 37.8343L109.549 30.23C110.124 29.8636 110.155 29.0669 109.608 28.6619Z" fill="white"/>
<path d="M102 30.682C102 30.682 117.227 4.00001 145.076 4C172.924 3.99999 103.591 61.7883 105.883 60.9918C108.176 60.1954 143.742 47.16 168 38.2972" stroke="white" stroke-width="8"/>
</svg>
